<?xml version="1.0" encoding="utf-8"?>
<!-- Generator: Adobe Illustrator 16.0.0, SVG Export Plug-In . SVG Version: 6.00 Build 0)  -->
<!DOCTYPE svg PUBLIC "-//W3C//DTD SVG 1.1//EN" "http://www.w3.org/Graphics/SVG/1.1/DTD/svg11.dtd">
<svg version="1.1" id="Layer_1" xmlns="http://www.w3.org/2000/svg" xmlns:xlink="http://www.w3.org/1999/xlink" x="0px" y="0px"
	 width="24px" height="24px" viewBox="0 0 24 24" enable-background="new 0 0 24 24" xml:space="preserve">
<path fill="#FFFFFF" d="M22.657,13.756c-0.093-0.258-0.236-0.486-0.411-0.691c-0.31-1.249-0.92-2.679-1.81-4.098
	c-1.425-2.273-5.195-5.938-6.626-6.504c-0.072-0.028-0.136-0.044-0.196-0.058c-0.049-0.354-0.248-0.682-0.723-0.906
	c-1.664-0.784-3.294-1.554-4.426-1.086C7.332,0.878,6.699,1.603,7.921,4.351c1.164,0.848,3.463-0.862,4.2,0.233
	c0.734,1.095,1.546,4.737,2.894,7.067c-0.34-0.047-0.692-0.073-1.054-0.073c-1.556,0-2.953,0.457-3.94,1.185
	c-0.845-1.317-2.321-2.194-4.003-2.194c-2.229,0-4.092,1.535-4.608,3.603l-0.205,0.003L1.324,24l2.431-0.04l0.881-1.563
	c1.531-0.587,3.343-2.104,4.601-3.722c1.705,0.251,3.859,0.392,4.726,0.392c0.939,0,4.487-0.412,5.502-0.783
	C21.827,17.418,23.258,15.392,22.657,13.756z"/>
</svg>
