<?xml version="1.0" encoding="utf-8"?>
<!-- Generator: Adobe Illustrator 16.0.0, SVG Export Plug-In . SVG Version: 6.00 Build 0)  -->
<!DOCTYPE svg PUBLIC "-//W3C//DTD SVG 1.1//EN" "http://www.w3.org/Graphics/SVG/1.1/DTD/svg11.dtd">
<svg version="1.1" id="Layer_1" xmlns="http://www.w3.org/2000/svg" xmlns:xlink="http://www.w3.org/1999/xlink" x="0px" y="0px"
	 width="24px" height="24px" viewBox="0 0 24 24" enable-background="new 0 0 24 24" xml:space="preserve">
<g>
	<g>
		<g>
			<path fill="#FFFFFF" d="M16.691,24H7.308c-0.208,0-0.372-0.165-0.372-0.373V8.938c0-0.207,0.164-0.371,0.372-0.371h9.384
				c0.206,0,0.373,0.165,0.373,0.371v14.689C17.064,23.835,16.897,24,16.691,24z M7.68,23.255h8.641V9.311H7.68V23.255z"/>
		</g>
	</g>
	<g>
		<g>
			<path fill="#FFFFFF" d="M16.691,13.354h-3.026c-0.204,0-0.371-0.169-0.371-0.373v-1.271c0-0.206,0.167-0.373,0.371-0.373h3.026
				c0.206,0,0.373,0.167,0.373,0.373v1.271C17.064,13.186,16.897,13.354,16.691,13.354z M14.038,12.608h2.282v-0.526h-2.282V12.608z
				"/>
		</g>
	</g>
	<g>
		<g>
			<path fill="#FFFFFF" d="M16.691,16.486h-3.026c-0.204,0-0.371-0.165-0.371-0.373v-1.269c0-0.206,0.167-0.373,0.371-0.373h3.026
				c0.206,0,0.373,0.167,0.373,0.373v1.269C17.064,16.321,16.897,16.486,16.691,16.486z M14.038,15.74h2.282v-0.525h-2.282V15.74z"
				/>
		</g>
	</g>
	<g>
		<g>
			<path fill="#FFFFFF" d="M16.691,19.651h-3.026c-0.204,0-0.371-0.167-0.371-0.373v-1.271c0-0.205,0.167-0.373,0.371-0.373h3.026
				c0.206,0,0.373,0.168,0.373,0.373v1.271C17.064,19.484,16.897,19.651,16.691,19.651z M14.038,18.906h2.282V18.38h-2.282V18.906z"
				/>
		</g>
	</g>
	<g>
		<g>
			<path fill="#FFFFFF" d="M16.402,7.554H7.597c0.86-3.101,2.977-4.961,2.977-4.961h2.853C13.426,2.592,15.96,5.382,16.402,7.554z"
				/>
		</g>
	</g>
	<g>
		<g>
			<path fill="#FFFFFF" d="M13.209,3.863c0,0.668-0.541,1.21-1.21,1.21l0,0c-0.668,0-1.208-0.542-1.208-1.21V1.321
				c0-0.668,0.54-1.21,1.208-1.21l0,0c0.669,0,1.21,0.542,1.21,1.21V3.863z"/>
		</g>
	</g>
</g>
</svg>
