<?xml version="1.0" encoding="utf-8"?>
<!-- Generator: Adobe Illustrator 16.0.0, SVG Export Plug-In . SVG Version: 6.00 Build 0)  -->
<!DOCTYPE svg PUBLIC "-//W3C//DTD SVG 1.1//EN" "http://www.w3.org/Graphics/SVG/1.1/DTD/svg11.dtd">
<svg version="1.1" id="Layer_1" xmlns="http://www.w3.org/2000/svg" xmlns:xlink="http://www.w3.org/1999/xlink" x="0px" y="0px"
	 width="24px" height="24px" viewBox="0 0 24 24" enable-background="new 0 0 24 24" xml:space="preserve">
<g>
	<g>
		<circle fill="#FFFFFF" cx="18.979" cy="21.24" r="1.412"/>
	</g>
	<g>
		<circle fill="#FFFFFF" cx="9.944" cy="21.24" r="1.412"/>
	</g>
	<g>
		<path fill="#FFFFFF" d="M6.65,15.146L5.259,6.497C4.371,1.405,0.047,1.349,0.004,1.349L0,2.695
			C0.131,2.698,3.241,2.779,3.928,6.72l1.384,8.573c0.071,1.149,0.865,3.327,3.367,3.327h13.227v-1.349H8.679
			C6.857,17.271,6.673,15.417,6.65,15.146z"/>
	</g>
	<g>
		<path fill="#FFFFFF" d="M22.23,5.903c-2.526,0-13.436-1.347-13.436-1.347s-2.696-0.548-2.24,2.361
			c0.454,2.907,1.14,7.018,1.14,7.018s0.551,2.215,2.868,2.215c1.854,0,7.33,0,9.436,0s2.841-2.541,2.841-2.541l1.181-5.546
			C24.021,8.063,24.76,5.903,22.23,5.903z"/>
	</g>
</g>
</svg>
