<?xml version="1.0" encoding="utf-8"?>
<!-- Generator: Adobe Illustrator 16.0.0, SVG Export Plug-In . SVG Version: 6.00 Build 0)  -->
<!DOCTYPE svg PUBLIC "-//W3C//DTD SVG 1.1//EN" "http://www.w3.org/Graphics/SVG/1.1/DTD/svg11.dtd">
<svg version="1.1" id="Layer_1" xmlns="http://www.w3.org/2000/svg" xmlns:xlink="http://www.w3.org/1999/xlink" x="0px" y="0px"
	 width="24px" height="24px" viewBox="0 0 24 24" enable-background="new 0 0 24 24" xml:space="preserve">
<g>
	<g>
		<circle fill="#FFFFFF" cx="12.081" cy="2.129" r="2.118"/>
		<path fill="#FFFFFF" d="M16.936,12.529"/>
		<path fill="#FFFFFF" d="M16.992,12.433c0,0.003,0,0.005,0,0.007c0,0.493-0.402,0.896-0.893,0.896
			c-0.496,0-0.895-0.403-0.895-0.896c0-0.002,0-0.004,0-0.007h-0.002V7.591l-0.582-0.002l0.006,15.208
			c0,0.667-0.539,1.203-1.203,1.203c-0.658,0-1.192-0.53-1.201-1.187l-0.007-0.009V13h-0.54l0.001,9.792
			c0,0.669-0.542,1.208-1.208,1.208c-0.671,0-1.207-0.539-1.207-1.208L9.267,7.613H8.707v4.82H8.704
			c0.003,0.013,0.003,0.024,0.003,0.041c0,0.493-0.396,0.895-0.893,0.895c-0.493,0-0.894-0.401-0.894-0.895
			c0-0.017,0.002-0.028,0.002-0.041H6.919L6.92,7.22c0,0-0.109-2.23,2.933-2.286h1.118l0.984,1.611l0.982-1.611h1.164
			c0,0,2.695-0.037,2.891,2.286v5.221"/>
		<path fill="#FFFFFF" d="M19.662,7.064c0.777,0,1.41-0.632,1.41-1.41s-0.633-1.408-1.41-1.408c-0.775,0-1.406,0.63-1.406,1.408
			S18.887,7.064,19.662,7.064z"/>
		<path fill="#FFFFFF" d="M21.006,7.517h-0.771L19.58,8.592l-0.654-1.075h-0.742c-0.275,0.005-0.506,0.041-0.709,0.092v1.692h0.318
			l-0.004,10.091c0,0.443,0.359,0.804,0.803,0.804s0.803-0.36,0.803-0.804l-0.002-6.511h0.361v6.517l0.006,0.005
			c0.004,0.439,0.359,0.789,0.795,0.789c0.441,0,0.801-0.356,0.801-0.796L21.354,9.285h0.387v3.22l0,0c0,0.002,0,0.002,0,0.004
			c0,0.329,0.266,0.595,0.594,0.595s0.594-0.266,0.594-0.595c0-0.002,0-0.002,0-0.004V9.043C22.799,7.497,21.006,7.517,21.006,7.517
			z"/>
	</g>
	<circle fill="#FFFFFF" cx="4.337" cy="5.59" r="1.408"/>
	<path fill="#FFFFFF" d="M2.994,7.454h0.773L4.42,8.526l0.653-1.072h0.745C6.09,7.46,6.321,7.491,6.523,7.543v1.69H6.208
		L6.21,19.326c0,0.447-0.356,0.804-0.801,0.804c-0.443,0-0.805-0.356-0.805-0.804l0.004-6.513H4.245v6.52l-0.004,0.006
		c-0.004,0.438-0.36,0.789-0.797,0.789c-0.441,0-0.8-0.354-0.8-0.797L2.648,9.219H2.261v3.222H2.259c0,0,0,0.004,0,0.005
		c0,0.328-0.266,0.593-0.593,0.593c-0.328,0-0.593-0.266-0.593-0.593c0-0.001,0-0.003,0-0.003V8.979
		C1.203,7.432,2.994,7.454,2.994,7.454z"/>
</g>
</svg>
