<?xml version="1.0" encoding="utf-8"?>
<!-- Generator: Adobe Illustrator 16.0.0, SVG Export Plug-In . SVG Version: 6.00 Build 0)  -->
<!DOCTYPE svg PUBLIC "-//W3C//DTD SVG 1.1//EN" "http://www.w3.org/Graphics/SVG/1.1/DTD/svg11.dtd">
<svg version="1.1" id="Layer_1" xmlns="http://www.w3.org/2000/svg" xmlns:xlink="http://www.w3.org/1999/xlink" x="0px" y="0px"
	 width="24px" height="24px" viewBox="0 0 24 24" enable-background="new 0 0 24 24" xml:space="preserve">
<g>
	<g>
		<g>
			<g>
				<g>
					<path fill-rule="evenodd" clip-rule="evenodd" fill="#FFFFFF" d="M22.282,1.72H1.722c-0.949,0-1.717,0.766-1.717,1.715v17.133
						c0,0.943,0.768,1.713,1.717,1.713h20.561c0.943,0,1.713-0.77,1.713-1.713V3.435C23.995,2.485,23.226,1.72,22.282,1.72z
						 M8.198,3.007c0.473,0,0.855,0.381,0.855,0.855c0,0.473-0.383,0.857-0.855,0.857S7.343,4.335,7.343,3.862
						C7.343,3.388,7.726,3.007,8.198,3.007z M5.576,3.007c0.472,0,0.856,0.381,0.856,0.855c0,0.473-0.385,0.857-0.856,0.857
						c-0.475,0-0.858-0.385-0.858-0.857C4.718,3.388,5.102,3.007,5.576,3.007z M3.005,3.007c0.473,0,0.855,0.381,0.855,0.855
						c0,0.473-0.383,0.857-0.855,0.857S2.149,4.335,2.149,3.862C2.149,3.388,2.532,3.007,3.005,3.007z M22.282,20.567H1.722V6.022
						h20.561V20.567z"/>
				</g>
			</g>
		</g>
	</g>
	<g>
		<g>
			<rect x="4.364" y="9.813" fill-rule="evenodd" clip-rule="evenodd" fill="#FFFFFF" width="3.256" height="1.102"/>
		</g>
	</g>
	<g>
		<g>
			<rect x="9.246" y="9.813" fill-rule="evenodd" clip-rule="evenodd" fill="#FFFFFF" width="10.392" height="1.102"/>
		</g>
	</g>
	<g>
		<g>
			<rect x="4.364" y="12.552" fill-rule="evenodd" clip-rule="evenodd" fill="#FFFFFF" width="3.256" height="1.104"/>
		</g>
	</g>
	<g>
		<g>
			<rect x="9.246" y="12.552" fill-rule="evenodd" clip-rule="evenodd" fill="#FFFFFF" width="10.392" height="1.104"/>
		</g>
	</g>
	<g>
		<g>
			<rect x="4.364" y="15.144" fill-rule="evenodd" clip-rule="evenodd" fill="#FFFFFF" width="3.256" height="1.104"/>
		</g>
	</g>
	<g>
		<g>
			<rect x="9.246" y="15.144" fill-rule="evenodd" clip-rule="evenodd" fill="#FFFFFF" width="10.392" height="1.104"/>
		</g>
	</g>
</g>
</svg>
